<svg viewBox="0 0 24 24" xmlns="http://www.w3.org/2000/svg"><path d="M11.5 18.573c-1.74 0-3.37-.68-4.596-1.91C5.67 15.433 5 13.803 5 12.063c0-1.737.67-3.37 1.904-4.6 .391-.391 1.02-.391 1.41 0 .391.391.391 1.02 0 1.41 -.85.85-1.32 1.98-1.32 3.183 0 1.202.46 2.333 1.31 3.183 .85.85 1.97 1.31 3.18 1.31 1.2 0 2.33-.47 3.18-1.32 .85-.85 1.31-1.98 1.31-3.183 0-1.21-.47-2.333-1.32-3.183 -.391-.391-.391-1.03 0-1.42 .391-.391 1.02-.391 1.41 0 1.22 1.22 1.904 2.86 1.904 4.59s-.68 3.36-1.904 4.59c-1.23 1.22-2.86 1.9-4.596 1.9Zm0-7.573c-.56 0-1-.45-1-1V5c0-.56.44-1 1-1 .55 0 1 .44 1 1v5c0 .55-.45 1-1 1Z"/></svg>